HIERARCHY
ROOT hip
{
	OFFSET 0.000000 0.000000 0.000000 
	CHANNELS 6 Xposition Yposition Zposition Xrotation Zrotation Yrotation
	JOINT abdomen
	{
		OFFSET 0.000000 3.402643 0.000000 
		CHANNELS 3 Xrotation Zrotation Yrotation
		JOINT chest
		{
			OFFSET 0.000000 8.438565 -0.680529 
			CHANNELS 3 Xrotation Zrotation Yrotation
			JOINT neck
			{
				OFFSET 0.000000 10.207942 -0.272212 
				CHANNELS 3 Xrotation Zrotation Yrotation
				JOINT head
				{
					OFFSET 0.000000 3.130431 0.000000 
					CHANNELS 3 Xrotation Zrotation Yrotation
					End Site
					{
						OFFSET 0.000000 3.130435 0.000000 
					}
				}
			}
			JOINT lCollar
			{
				OFFSET 3.470700 6.669187 -0.816635 
				CHANNELS 3 Yrotation Zrotation Xrotation
				JOINT lShldr
				{
					OFFSET 3.198488 0.000000 0.000000 
					CHANNELS 3 Zrotation Yrotation Xrotation
					JOINT lForeArm
					{
						OFFSET 10.139888 0.000000 0.000000 
						CHANNELS 3 Yrotation Zrotation Xrotation
						JOINT lHand
						{
							OFFSET 8.370511 0.000000 0.000000 
							CHANNELS 3 Zrotation Yrotation Xrotation
							End Site
							{
								OFFSET 4.083176 0.000000 0.000000 
							}
						}
					}
				}
			}
			JOINT rCollar
			{
				OFFSET -3.470700 6.669187 -0.816635 
				CHANNELS 3 Yrotation Zrotation Xrotation
				JOINT rShldr
				{
					OFFSET -3.198488 0.000000 0.000000 
					CHANNELS 3 Zrotation Yrotation Xrotation
					JOINT rForeArm
					{
						OFFSET -10.139888 0.000000 0.000000 
						CHANNELS 3 Yrotation Zrotation Xrotation
						JOINT rHand
						{
							OFFSET -8.370511 0.000000 0.000000 
							CHANNELS 3 Zrotation Yrotation Xrotation
							End Site
							{
								OFFSET -4.083176 0.000000 0.000000 
							}
						}
					}
				}
			}
		}
	}
	JOINT lThigh
	{
		OFFSET 5.308129 -1.633274 1.361059 
		CHANNELS 3 Xrotation Zrotation Yrotation
		JOINT lShin
		{
			OFFSET -2.041588 -20.007561 0.000000 
			CHANNELS 3 Xrotation Zrotation Yrotation
			JOINT lFoot
			{
				OFFSET 0.000000 -19.190928 -1.224953 
				CHANNELS 3 Xrotation Yrotation Zrotation
				End Site
				{
					OFFSET 0.000000 -2.449906 4.627600 
				}
			}
		}
	}
	JOINT rThigh
	{
		OFFSET -5.308129 -1.633274 1.361059 
		CHANNELS 3 Xrotation Zrotation Yrotation
		JOINT rShin
		{
			OFFSET 2.041588 -20.007561 0.000000 
			CHANNELS 3 Xrotation Zrotation Yrotation
			JOINT rFoot
			{
				OFFSET 0.000000 -19.190928 -1.224953 
				CHANNELS 3 Xrotation Yrotation Zrotation
				End Site
				{
					OFFSET 0.000000 -2.449906 4.627600 
				}
			}
		}
	}
}
MOTION
Frames: 11
Frame Time: 0.016667
-2.170902 42.657658 10.402654 -8.984790 -0.549811 -1.084950 -20.966600 -0.819909 1.234310 19.863199 1.074140 0.426455 13.429200 -0.574077 -2.314450 9.844270 5.564670 -1.286340 2.000000 -2.000000 0.000000 26.389700 -25.670700 77.678398 61.992699 -0.279050 0.120758 0.072191 -0.073429 -164.158005 -2.000000 2.000000 0.000000 -22.587500 27.822300 90.160797 -66.514198 0.269334 0.125397 -0.055058 0.014528 -142.117004 2.241611 -5.727372 -10.734616 27.401167 3.679622 1.813972 -14.461537 6.063281 0.724273 -10.874943 -6.564250 3.428746 50.666195 -2.471268 -3.259122 -15.973986 -20.019402 -6.030825 
-2.439908 42.738987 10.816182 -8.330550 -0.608743 0.987568 -20.850800 -0.981675 1.220280 19.404100 1.044710 0.389143 13.106500 0.786256 -2.919050 9.750660 5.935070 -1.600740 2.000000 -2.000000 0.000000 24.016100 -21.342100 73.575996 67.920502 -0.266241 0.126741 0.075530 -0.079582 -166.658005 -2.000000 2.000000 0.000000 -24.200600 25.682301 82.081398 -72.471199 0.256026 0.130376 -0.055450 0.018336 -143.483994 2.161319 -4.978599 -11.667080 26.717611 3.762856 1.768539 -14.492820 5.183184 0.422230 -12.822286 -6.015348 6.383413 45.359367 -2.845700 -2.951751 -13.472089 -21.650105 -5.500245 
-2.753961 42.947353 11.225317 -7.725340 -0.783837 3.055540 -20.793501 -1.113440 1.174820 18.935200 1.103070 0.349643 12.932900 2.124310 -3.597900 9.617990 6.315790 -1.978370 2.000000 -2.000000 0.000000 20.193701 -18.029499 70.805298 74.248596 -0.251963 0.131632 0.072704 -0.100421 -171.326004 -2.000000 2.000000 0.000000 -24.058300 23.843901 76.482300 -79.395103 0.240010 0.134389 -0.056100 0.023298 -145.270996 2.537579 -4.011812 -12.440756 25.049623 3.860151 1.642595 -13.455687 4.138421 0.131745 -14.200227 -5.376299 10.879066 39.394554 -3.316760 -2.573118 -9.588080 -23.486542 -4.215528 
-3.123800 43.142586 11.631207 -6.954450 -1.114790 5.282430 -20.863300 -1.286210 1.242500 18.573900 1.073580 0.353467 13.110000 3.425230 -4.422090 9.514610 6.676830 -2.472320 2.000000 -2.000000 0.000000 15.136800 -16.466299 69.924896 80.840401 -0.236613 0.135021 -179.916000 -179.895004 1.974810 -2.000000 2.000000 0.000000 -21.791000 22.220600 73.061401 -86.797401 0.222487 0.136512 -0.056230 0.024164 -145.584000 2.845557 -2.723079 -13.599072 22.736515 3.926019 1.480465 -12.387930 3.325778 -0.137842 -15.200890 -4.928576 16.940611 32.637394 -3.614064 -2.151110 -5.849334 -25.714575 -3.119989 
-3.541754 43.356480 12.005292 -6.262310 -1.630840 7.678860 -20.885099 -1.532360 1.336960 18.271200 0.858692 0.356361 13.428700 5.180510 -4.906640 9.473880 7.289920 -2.838750 2.000000 -2.000000 0.000000 9.235900 -15.607700 70.885399 86.728996 -0.222650 0.136540 -179.903000 -179.880997 -4.675580 -2.000000 2.000000 0.000000 -17.820601 20.920401 71.196999 -94.082497 0.205811 0.116873 -0.056313 0.024704 -145.779007 3.009689 -1.042715 -15.061975 20.288181 3.972369 1.312538 -10.792323 2.655601 -0.514893 -16.072742 -4.172411 23.783421 27.749561 -3.941114 -1.803558 -5.776741 -27.642591 -3.396386 
-4.047299 43.469479 12.348711 -5.756460 -2.263930 9.993610 -20.760500 -1.741610 1.390820 18.085800 0.624419 0.363683 14.394900 6.165540 -5.101350 9.716190 7.684940 -3.062640 2.000000 -2.000000 0.000000 1.953130 -15.346300 73.990997 91.885300 -0.210030 0.156213 0.104615 -0.125092 171.848007 -2.000000 2.000000 0.000000 -12.735000 20.636400 70.187897 -100.704002 0.191270 0.114987 -0.056313 0.024704 -145.779007 3.098871 0.477538 -16.481544 18.706772 4.075832 1.206706 -10.124561 2.219955 -0.589781 -17.476068 -3.486552 28.955381 25.230801 -4.263503 -1.597702 -12.499453 -29.481337 -6.771704 
-4.640040 43.477974 12.628995 -5.260340 -2.829850 11.744500 -20.615700 -1.906910 1.478780 17.802601 0.458454 0.378338 15.863100 5.873590 -4.716280 10.168500 7.619530 -2.929390 2.000000 -2.000000 0.000000 -6.615570 -14.831800 79.787498 95.791603 -0.200068 0.155543 0.105706 -0.135726 171.350006 -2.000000 2.000000 0.000000 -6.944260 21.486099 70.196999 -105.772003 0.180342 0.112417 -0.056459 0.025623 -146.110992 2.351970 1.802415 -18.119362 18.766094 4.122407 1.193850 -10.476851 2.140304 -0.643912 -19.304474 -3.373426 29.627913 23.430895 -4.475248 -1.454852 -23.059723 -29.233723 -12.248292 
-5.328325 43.502037 12.836034 -4.694580 -3.143740 12.874800 -20.276199 -2.161470 1.745460 17.558599 0.243806 0.475512 16.424801 5.484360 -4.218590 10.364500 7.558060 -2.685300 2.000000 -2.000000 0.000000 -15.532000 -13.662000 87.917603 97.832603 -0.194887 0.154924 0.105299 -0.125638 171.535004 -2.000000 2.000000 0.000000 -0.644136 23.400801 71.009903 -109.112000 0.173283 0.110199 -0.056814 0.027726 -146.873001 1.454766 2.696009 -19.362827 19.080879 4.148520 1.206641 -10.302247 2.562667 -0.549826 -21.665342 -3.534208 27.838999 22.777239 -4.552423 -1.409928 -24.163301 -29.139626 -12.758522 
-6.106637 43.498825 13.008810 -4.040080 -3.341300 13.936600 -19.617001 -2.589630 2.020900 17.656200 -0.156050 0.564547 16.137600 5.144700 -3.867200 10.353300 7.480570 -2.450990 2.000000 -2.000000 0.000000 -23.269100 -13.084900 97.033401 97.568901 -0.195555 0.155014 0.108129 -0.127835 170.255997 -2.000000 2.000000 0.000000 5.677390 26.312201 72.717102 -110.380997 0.170635 0.109249 -0.056996 0.028749 -147.244003 0.562463 3.594987 -20.502832 19.056852 4.167740 1.209921 -10.197806 2.905986 -0.471666 -24.164087 -3.699746 25.953621 23.165962 -4.404976 -1.461108 -18.708639 -29.586468 -10.042146 
-6.931954 43.419151 13.257415 -3.246250 -2.866490 15.279500 -18.937599 -2.951190 2.250170 17.900400 -0.165837 0.613163 15.506000 4.177410 -3.750230 10.122200 7.192920 -2.326820 2.000000 -2.000000 0.000000 -30.128799 -13.734300 106.893997 94.219299 -0.204072 0.155894 0.112766 -0.131222 168.205002 -2.000000 2.000000 0.000000 11.545600 29.927900 76.645599 -109.707001 0.172038 0.109761 -0.056992 0.028722 -147.233994 -0.123614 3.874324 -21.823027 18.379065 4.192305 1.166242 -10.330009 3.139929 -0.387267 -26.630445 -4.404234 24.474823 24.859667 -4.170163 -1.588953 -14.161811 -26.962160 -7.392789 
-7.783107 43.338840 13.566233 -2.551490 -2.614600 16.991301 -18.389500 -2.956590 2.288190 18.017599 0.009756 0.634333 15.547400 2.853890 -3.447650 10.047300 6.795800 -2.124380 2.000000 -2.000000 0.000000 -36.430000 -16.304300 116.197998 88.486801 -0.218460 0.136714 0.114360 -0.132330 167.511993 -2.000000 2.000000 0.000000 17.285200 34.237301 83.226997 -107.060997 0.177602 0.111610 -0.057110 0.029367 -147.468994 -1.207143 4.320058 -23.142689 18.828039 4.113106 1.192100 -9.809962 3.130242 -0.330367 -28.235884 -4.867394 23.071035 26.513313 -3.935460 -1.719521 -10.544209 -23.883413 -5.537115 
